<svg xmlns="http://www.w3.org/2000/svg" xmlns:xlink="http://www.w3.org/1999/xlink" width="28" height="28" viewBox="0 0 28 28">
  <defs>
    <clipPath id="clip-ic_options_import_byapp">
      <rect width="28" height="28"/>
    </clipPath>
  </defs>
  <g id="ic_options_import_byapp" clip-path="url(#clip-ic_options_import_byapp)">
    <g id="Raggruppa_9131" data-name="Raggruppa 9131">
      <g id="Raggruppa_9129" data-name="Raggruppa 9129">
        <g id="Raggruppa_8263" data-name="Raggruppa 8263">
          <g id="Raggruppa_8260" data-name="Raggruppa 8260">
            <g id="Raggruppa_8259" data-name="Raggruppa 8259">
              <rect id="Rettangolo_406" data-name="Rettangolo 406" width="28" height="28" fill="#fff" opacity="0"/>
            </g>
            <g id="Raggruppa_9128" data-name="Raggruppa 9128" transform="translate(1)">
              <path id="developer" d="M8.2,15.328H2.4a2.4,2.4,0,0,1-2.4-2.4V2.4A2.4,2.4,0,0,1,2.4,0H8.2a2.4,2.4,0,0,1,2.4,2.4v.932a.6.6,0,1,1-1.2,0V2.4A1.2,1.2,0,0,0,8.2,1.2H2.4A1.2,1.2,0,0,0,1.2,2.4V12.933a1.2,1.2,0,0,0,1.2,1.2H8.2a1.2,1.2,0,0,0,1.2-1.2V11.8a.6.6,0,1,1,1.2,0v1.134A2.4,2.4,0,0,1,8.2,15.328ZM5.9,12.607a.6.6,0,1,0-.6.6A.6.6,0,0,0,5.9,12.607ZM7.5,2.728a.6.6,0,0,0-.6-.6H3.7a.6.6,0,1,0,0,1.2H6.9A.6.6,0,0,0,7.5,2.728Z" transform="translate(7.443 6.672)" fill="#002d5a"/>
              <path id="file-import-alt" d="M16.582,11.861a.525.525,0,0,1-.525.525H11.029l.5.5a.525.525,0,1,1-.741.741l-1.4-1.4a.525.525,0,0,1-.113-.571.539.539,0,0,1,.113-.171l1.4-1.4a.525.525,0,0,1,.741.741l-.5.5h5.028a.525.525,0,0,1,.525.525Z" transform="translate(4.25 2.647)" fill="#002d5a"/>
            </g>
          </g>
        </g>
      </g>
    </g>
  </g>
</svg>
