<svg xmlns="http://www.w3.org/2000/svg" xmlns:xlink="http://www.w3.org/1999/xlink" width="24" height="24" viewBox="0 0 24 24">
  <defs>
    <clipPath id="clip-gm_player_last_invisible">
      <rect width="24" height="24"/>
    </clipPath>
  </defs>
  <g id="gm_player_last_invisible" clip-path="url(#clip-gm_player_last_invisible)">
    <g id="Raggruppa_9759" data-name="Raggruppa 9759">
      <rect id="Rettangolo_628" data-name="Rettangolo 628" width="24" height="24" fill="#fff" opacity="0"/>
      <g id="play-pause-o" transform="translate(4 4)">
        <path id="Tracciato_1545" data-name="Tracciato 1545" d="M1.5,9.5a8,8,0,1,0,8-8A8,8,0,0,0,1.5,9.5Zm1.455,0A6.545,6.545,0,1,0,9.5,2.955,6.545,6.545,0,0,0,2.955,9.5Z" transform="translate(-1.5 -1.5)" fill="#9facba" fill-rule="evenodd"/>
        <path id="Tracciato_1563" data-name="Tracciato 1563" d="M16.733,12.375a.484.484,0,0,0-.484.484v1.6l-3.38-2.041a.326.326,0,0,0-.494.282v4.184a.326.326,0,0,0,.494.282l3.38-2.041v1.6a.484.484,0,1,0,.968,0V12.859A.484.484,0,0,0,16.733,12.375Z" transform="translate(-6.796 -6.796)" fill="#9facba"/>
      </g>
    </g>
  </g>
</svg>
