<svg xmlns="http://www.w3.org/2000/svg" xmlns:xlink="http://www.w3.org/1999/xlink" width="20" height="20" viewBox="0 0 20 20">
  <defs>
    <clipPath id="clip-dashboard_ic_input_search">
      <rect width="20" height="20"/>
    </clipPath>
  </defs>
  <g id="dashboard_ic_input_search" clip-path="url(#clip-dashboard_ic_input_search)">
    <g id="Raggruppa_8491" data-name="Raggruppa 8491">
      <g id="search" transform="translate(1.73 1.5)">
        <path id="Tracciato_96" data-name="Tracciato 96" d="M23.139,23.138a1.032,1.032,0,0,1,1.46,0l3.971,3.971a1.032,1.032,0,1,1-1.458,1.46L23.141,24.6a1.032,1.032,0,0,1,0-1.46Z" transform="translate(-12.367 -12.365)" fill="#002d5a" fill-rule="evenodd"/>
        <path id="Tracciato_97" data-name="Tracciato 97" d="M6.705,12.379A5.674,5.674,0,1,0,1.032,6.705,5.674,5.674,0,0,0,6.705,12.379Zm6.705-5.674A6.705,6.705,0,1,1,6.705,0a6.705,6.705,0,0,1,6.705,6.705Z" fill="#002d5a" fill-rule="evenodd"/>
      </g>
      <rect id="Rettangolo_427" data-name="Rettangolo 427" width="20" height="20" fill="none"/>
    </g>
  </g>
</svg>
