<svg xmlns="http://www.w3.org/2000/svg" xmlns:xlink="http://www.w3.org/1999/xlink" width="34" height="34" viewBox="0 0 34 34">
  <defs>
    <clipPath id="clip-navbar_ic_notice">
      <rect width="34" height="34"/>
    </clipPath>
  </defs>
  <g id="navbar_ic_notice" clip-path="url(#clip-navbar_ic_notice)">
    <g id="Raggruppa_1" data-name="Raggruppa 1" transform="translate(-1168.926 -12.613)">
      <g id="bell" transform="translate(1177 19.413)">
        <path id="Tracciato_88" data-name="Tracciato 88" d="M16.05,34.05A2.55,2.55,0,0,0,18.6,31.5H13.5A2.55,2.55,0,0,0,16.05,34.05Z" transform="translate(-7.125 -13.65)" fill="#002d5a"/>
        <path id="Tracciato_89" data-name="Tracciato 89" d="M11.175,2.446l-1.016.205a5.1,5.1,0,0,0-4.084,5,27.627,27.627,0,0,1-.585,4.771A16.461,16.461,0,0,1,4.644,15.3H17.706a16.609,16.609,0,0,1-.846-2.879,27.727,27.727,0,0,1-.585-4.771,5.1,5.1,0,0,0-4.084-5l-1.016-.208ZM19.106,15.3a3.244,3.244,0,0,0,.995,1.275H2.25A3.244,3.244,0,0,0,3.245,15.3,22.58,22.58,0,0,0,4.8,7.651,6.377,6.377,0,0,1,9.907,1.4a1.275,1.275,0,1,1,2.538,0,6.378,6.378,0,0,1,5.107,6.249,22.58,22.58,0,0,0,1.556,7.65Z" transform="translate(-2.25 -0.001)" fill="#002d5a" fill-rule="evenodd"/>
      </g>
    </g>
  </g>
</svg>
