<svg xmlns="http://www.w3.org/2000/svg" xmlns:xlink="http://www.w3.org/1999/xlink" width="28" height="28" viewBox="0 0 28 28">
  <defs>
    <clipPath id="clip-path">
      <rect id="Rettangolo_393" data-name="Rettangolo 393" width="18.067" height="14.303" transform="translate(0 0)" fill="#002d5a"/>
    </clipPath>
    <clipPath id="clip-ic_table_add_row_multiple">
      <rect width="28" height="28"/>
    </clipPath>
  </defs>
  <g id="ic_table_add_row_multiple" clip-path="url(#clip-ic_table_add_row_multiple)">
    <rect id="Rettangolo_407" data-name="Rettangolo 407" width="28" height="28" fill="#fff" opacity="0"/>
    <g id="Raggruppa_8070" data-name="Raggruppa 8070" transform="translate(4.966 6.848)">
      <g id="Raggruppa_8203" data-name="Raggruppa 8203" clip-path="url(#clip-path)">
        <path id="Tracciato_1065" data-name="Tracciato 1065" d="M1.5,0A1.505,1.505,0,0,0,0,1.506V6.023A1.507,1.507,0,0,0,1.5,7.528V1.506H15.056A1.508,1.508,0,0,0,13.55,0ZM3.011,4.517V9.034a1.505,1.505,0,0,0,1.5,1.5h.753a5.269,5.269,0,0,1,10.539,0h.753a1.505,1.505,0,0,0,1.506-1.5V4.517a1.506,1.506,0,0,0-1.506-1.506H4.516a1.505,1.505,0,0,0-1.5,1.506M10.2,6.775a3.764,3.764,0,1,0,3.764,3.764A3.764,3.764,0,0,0,10.2,6.775M9.786,8.281h1.506V9.787H12.8v1.505H11.292V12.8H9.786V11.292H8.28V9.787H9.786Z" fill="#002d5a"/>
      </g>
    </g>
  </g>
</svg>
