<?xml version="1.0" encoding="UTF-8" standalone="no"?><!DOCTYPE svg PUBLIC "-//W3C//DTD SVG 1.1//EN" "http://www.w3.org/Graphics/SVG/1.1/DTD/svg11.dtd"><svg width="100%" height="100%" viewBox="0 0 100 100" version="1.1" xmlns="http://www.w3.org/2000/svg" xmlns:xlink="http://www.w3.org/1999/xlink" xml:space="preserve" xmlns:serif="http://www.serif.com/" style="fill-rule:evenodd;clip-rule:evenodd;stroke-linejoin:round;stroke-miterlimit:2;"><g id="gm_pl_callout_ab_map_visible"><g id="Raggruppa_8955"><g id="Raggruppa_8873"><rect id="Tracciato_1213" x="0" y="0" width="100" height="100" style="fill:#fff;fill-opacity:0;fill-rule:nonzero;"/><g id="Raggruppa_8870"><g id="Raggruppa_8522"><path id="tag" d="M85.75,72.267l-57.233,-0c-1.607,0 -3.138,-0.695 -4.196,-1.905l-17.059,-19.483c-1.819,-2.095 -1.819,-5.242 0,-7.337l17.063,-19.509c1.057,-1.208 2.586,-1.903 4.192,-1.904l57.233,0c4.584,0.002 8.354,3.775 8.354,8.358l0,33.425c-0.002,4.583 -3.772,8.352 -8.354,8.355Z" style="fill:#fff;fill-rule:nonzero;"/></g><path id="Tracciato_1215" d="M38.288,50l9.999,0l-5.25,-12.938l-4.75,12.938Zm1.25,-12.938l-3.562,0.001c-0.719,0.054 -1.44,-0.09 -2.083,-0.417c-0.422,-0.316 -0.65,-0.83 -0.6,-1.354c-0.061,-0.518 0.135,-1.033 0.525,-1.379c0.909,-0.341 1.884,-0.466 2.85,-0.367l6.958,-0c0.628,-0.061 1.261,0.063 1.821,0.354c0.397,0.352 0.696,0.801 0.866,1.304l9.555,23.854l0.416,0c0.626,-0.059 1.255,0.069 1.809,0.367c0.362,0.336 0.543,0.826 0.487,1.317c0.06,0.505 -0.11,1.012 -0.462,1.379c-0.524,0.307 -1.133,0.44 -1.738,0.379l-6.637,0c-0.813,0.081 -1.633,-0.05 -2.38,-0.379c-0.391,-0.345 -0.588,-0.861 -0.529,-1.379c-0.05,-0.505 0.168,-1.001 0.575,-1.304c0.68,-0.315 1.43,-0.446 2.175,-0.38l2.271,0l-2.366,-5.812l-12.405,-0l-2.083,5.812l2.367,0c0.752,-0.063 1.508,0.067 2.196,0.38c0.413,0.298 0.638,0.796 0.587,1.304c0.051,0.524 -0.162,1.041 -0.567,1.379c-0.719,0.325 -1.51,0.455 -2.295,0.379l-6.421,0c-0.717,0.071 -1.439,-0.06 -2.084,-0.379c-0.382,-0.35 -0.573,-0.864 -0.512,-1.379c-0.055,-0.498 0.141,-0.991 0.521,-1.317c0.613,-0.303 1.298,-0.43 1.979,-0.367l0.479,0l8.288,-21.996Zm35.104,22.046c2.083,0.086 4.111,-0.701 5.591,-2.17c1.457,-1.508 2.234,-3.548 2.15,-5.642c0.071,-2.084 -0.719,-4.107 -2.183,-5.592c-1.467,-1.468 -3.48,-2.264 -5.554,-2.196c-2.073,-0.075 -4.087,0.717 -5.554,2.184c-1.456,1.493 -2.238,3.52 -2.163,5.604c-0.074,2.088 0.708,4.117 2.163,5.617c1.462,1.472 3.475,2.269 5.55,2.195Zm-7.617,-15.65c0.908,-1.137 2.081,-2.034 3.417,-2.612c1.467,-0.623 3.048,-0.931 4.641,-0.904c3.067,-0.083 6.033,1.117 8.18,3.308c2.165,2.166 3.348,5.13 3.27,8.192c0.054,3.06 -1.162,6.009 -3.358,8.141c-2.147,2.194 -5.106,3.408 -8.175,3.355c-1.543,0.038 -3.075,-0.269 -4.483,-0.9c-1.274,-0.606 -2.356,-1.552 -3.125,-2.734l-0,1.946c0.028,0.335 -0.054,0.67 -0.234,0.954c-0.195,0.213 -0.479,0.323 -0.766,0.296l-4.471,0c-0.511,0.041 -1.018,-0.115 -1.417,-0.437c-0.333,-0.356 -0.501,-0.836 -0.462,-1.321c-0.062,-0.511 0.152,-1.018 0.562,-1.329c0.7,-0.298 1.463,-0.42 2.221,-0.355l0.508,0l0,-25l-0.458,0c-0.778,0.065 -1.56,-0.07 -2.271,-0.391c-0.43,-0.315 -0.661,-0.837 -0.604,-1.367c-0.039,-0.489 0.139,-0.971 0.488,-1.317c0.406,-0.32 0.917,-0.477 1.433,-0.441l3.712,-0c0.371,-0.03 0.742,0.056 1.063,0.246c0.229,0.182 0.352,0.466 0.329,0.758l0,11.912Z" style="fill:#002d5a;fill-rule:nonzero;"/></g></g></g></g></svg>